<svg width="17" height="17" fill="none" xmlns="http://www.w3.org/2000/svg"><path fill-rule="evenodd" clip-rule="evenodd" d="M7.016.004A41.81 41.81 0 004.89.057C4.205.095 3.633.2 3.115.38a4.252 4.252 0 00-1.5.868 6.638 6.638 0 00-.393.395c-.34.39-.57.769-.766 1.262C.21 3.527.09 4.153.048 5.038.005 5.932 0 6.314 0 8.5s.005 2.569.048 3.463c.042.885.162 1.51.408 2.133.2.502.441.897.79 1.289.072.08.286.294.368.368a4.19 4.19 0 001.343.81c.584.224 1.187.34 1.987.383.312.016.767.033 1.129.041.625.015 3.537.018 4.519.005a34.9 34.9 0 001.634-.056c.883-.059 1.604-.24 2.255-.565a4.05 4.05 0 001.088-.794c.225-.225.385-.417.54-.647.358-.53.62-1.217.74-1.943.058-.343.084-.616.106-1.082.04-.89.045-1.232.045-3.405 0-2.172-.005-2.512-.045-3.404a7.942 7.942 0 00-.137-1.255 4.91 4.91 0 00-.688-1.739 4.136 4.136 0 00-.561-.678 4.098 4.098 0 00-1.436-.951c-.57-.23-1.166-.358-1.904-.408-.175-.012-.592-.03-.927-.042-.642-.02-2.37-.028-4.286-.019zm3.634 1.537c.61.009 1.27.034 1.588.06.502.042.926.134 1.292.28.397.159.665.334.959.628.3.299.479.574.635.972.17.43.259.9.294 1.537.005.096.016.347.024.56.022.582.026.994.026 2.922 0 2.158-.003 2.424-.04 3.276-.02.448-.04.668-.088.951-.086.511-.257.978-.484 1.322a3.015 3.015 0 01-.804.805c-.314.207-.736.37-1.19.46-.323.064-.6.092-1.14.114-.827.036-1.096.039-3.222.039-2.123 0-2.413-.004-3.22-.039a9.033 9.033 0 01-.691-.046c-.716-.076-1.32-.285-1.752-.606a3.081 3.081 0 01-.696-.731c-.2-.307-.36-.716-.448-1.146a6.324 6.324 0 01-.118-1.065c-.04-.866-.043-1.162-.043-3.338 0-2.172.004-2.463.043-3.33a6.21 6.21 0 01.118-1.065c.088-.429.248-.837.448-1.145a3.09 3.09 0 01.69-.726c.371-.277.866-.471 1.441-.568a7.362 7.362 0 011.005-.09c.363-.015.563-.022.905-.03.506-.01 3.778-.012 4.468-.001zm2.318 1.405a1.02 1.02 0 101.08 1.158 1.021 1.021 0 00-1.08-1.158zM8.215 4.145a4.34 4.34 0 00-1.62.428 4.377 4.377 0 00-2.449 3.602 4.33 4.33 0 00.425 2.23 4.37 4.37 0 003.06 2.373c.323.064.577.088.923.083a4 4 0 00.829-.086 4.363 4.363 0 003.458-3.815 3.48 3.48 0 00.02-.46c0-.232-.003-.298-.02-.46a4.37 4.37 0 00-4.015-3.894 8.264 8.264 0 00-.61-.001zm.438 1.527a2.83 2.83 0 012.673 3.033 2.828 2.828 0 01-.937 1.907 2.822 2.822 0 01-2.093.714 2.833 2.833 0 01.357-5.654z" fill="#000"/></svg>