<svg width="17" height="17" viewBox="0 0 17 17" fill="none" xmlns="http://www.w3.org/2000/svg">
<path fill-rule="evenodd" clip-rule="evenodd" d="M7.01631 0.00395101C6.36798 0.00713665 6.25612 0.00856656 5.86825 0.0186293C5.60166 0.0255453 5.12724 0.0443916 4.89045 0.0574746C4.20504 0.0953423 3.63316 0.199209 3.11451 0.380021C2.51688 0.588362 2.05604 0.855027 1.6141 1.24822C1.52075 1.33126 1.30294 1.55079 1.22231 1.64308C0.882154 2.03244 0.651807 2.41189 0.456311 2.9049C0.20956 3.52716 0.0897481 4.15256 0.047732 5.03757C0.00527321 5.93193 0 6.31444 0 8.50043C0 10.6864 0.00527321 11.0689 0.047732 11.9633C0.0897481 12.8483 0.20956 13.4737 0.456311 14.096C0.655217 14.5976 0.897366 14.9927 1.24614 15.3848C1.31792 15.4655 1.53183 15.6793 1.6141 15.7526C2.01684 16.1113 2.43214 16.362 2.95687 16.5632C3.54122 16.7873 4.14415 16.9034 4.94396 16.9459C5.25627 16.9625 5.71088 16.9792 6.07256 16.9875C6.69823 17.0017 9.61016 17.0046 10.5918 16.992C11.1835 16.9845 11.8382 16.9621 12.2264 16.9362C13.1091 16.8773 13.8302 16.6965 14.4808 16.3711C14.8859 16.1684 15.224 15.9216 15.5685 15.5771C15.7936 15.352 15.9538 15.1604 16.1095 14.9301C16.4674 14.4006 16.7295 13.7126 16.8499 12.9871C16.9069 12.6438 16.9333 12.3713 16.9547 11.9049C16.9954 11.015 17 10.6727 17 8.50043C17 6.32835 16.9955 5.98844 16.9547 5.09593C16.9305 4.56624 16.8921 4.2134 16.8182 3.84113C16.6887 3.18859 16.4512 2.58835 16.1303 2.10241C15.9697 1.85926 15.8037 1.65869 15.5686 1.42379C15.1345 0.990015 14.6996 0.701882 14.1333 0.472979C13.5632 0.242509 12.9672 0.114763 12.2288 0.0647505C12.0536 0.0528883 11.6369 0.034251 11.3021 0.0233177C10.6597 0.00233628 8.93278 -0.00546972 7.01631 0.00395101ZM10.6502 1.54053C11.2594 1.54987 11.9195 1.57526 12.2385 1.60163C12.7398 1.64306 13.164 1.73483 13.5296 1.88095C13.9269 2.03975 14.1947 2.21498 14.4885 2.50851C14.7882 2.80788 14.9679 3.0828 15.1243 3.48095C15.2934 3.91162 15.3829 4.3804 15.4176 5.01812C15.4228 5.11381 15.4337 5.36489 15.4419 5.57743C15.4643 6.1598 15.468 6.57247 15.468 8.50043C15.468 10.6578 15.4646 10.9241 15.4271 11.776C15.4073 12.2244 15.3871 12.4443 15.3397 12.7274C15.2541 13.2384 15.0833 13.705 14.8559 14.0494C14.657 14.3504 14.3515 14.6563 14.0524 14.8536C13.7383 15.0609 13.3155 15.2244 12.8616 15.3141C12.5393 15.3778 12.2618 15.4057 11.7229 15.4285C10.8954 15.4636 10.6257 15.4668 8.50003 15.4668C6.37695 15.4668 6.08696 15.4634 5.27962 15.4285C4.92152 15.4131 4.80957 15.4055 4.58884 15.382C3.87325 15.3058 3.26952 15.0969 2.83655 14.7756C2.57571 14.5821 2.30582 14.2987 2.14053 14.0447C1.94065 13.7375 1.78063 13.3285 1.69256 12.8995C1.62745 12.5825 1.59647 12.3012 1.57524 11.8344C1.53582 10.9679 1.532 10.6725 1.53202 8.49557C1.53205 6.32444 1.53583 6.03277 1.57524 5.16646C1.59647 4.69971 1.62745 4.4184 1.69256 4.10134C1.78069 3.67209 1.94051 3.26355 2.14053 2.95619C2.30409 2.70486 2.57537 2.41916 2.83026 2.22981C3.20231 1.95342 3.69741 1.75858 4.27215 1.66234C4.56331 1.61359 4.78793 1.59349 5.27719 1.57238C5.64014 1.55672 5.84041 1.55014 6.18202 1.54262C6.68807 1.53149 9.96026 1.52996 10.6502 1.54053ZM12.9682 2.94619C12.6068 2.96958 12.2821 3.18874 12.1214 3.51778C11.9146 3.94097 12.0285 4.45745 12.3936 4.75253C12.7055 5.00456 13.1281 5.05392 13.4838 4.87988C13.7913 4.72945 13.9957 4.44843 14.0484 4.10377C14.0587 4.03626 14.0587 3.89565 14.0485 3.82411C14.004 3.51438 13.8279 3.24887 13.5596 3.0874C13.3853 2.98246 13.1769 2.93269 12.9682 2.94619ZM8.21545 4.145C7.63581 4.18554 7.10395 4.32597 6.59571 4.57267C5.58623 5.06267 4.79846 5.92836 4.40899 6.9757C4.26461 7.36397 4.18127 7.74377 4.14595 8.17457C4.13739 8.27896 4.13438 8.61698 4.14095 8.73498C4.17388 9.32555 4.31723 9.88149 4.57143 10.4045C5.16671 11.6293 6.30409 12.5114 7.63118 12.7777C7.95413 12.8425 8.20797 12.8656 8.55354 12.8615C8.86552 12.8579 9.10288 12.8332 9.38297 12.7755C10.3193 12.5824 11.1647 12.0872 11.7951 11.3626C12.3835 10.6862 12.7478 9.84964 12.8413 8.96004C12.8584 8.79779 12.8612 8.73279 12.8612 8.50043C12.8612 8.26792 12.8584 8.20241 12.8413 8.04082C12.7595 7.2656 12.4724 6.52822 12.0101 5.90567C11.4102 5.09779 10.5578 4.52257 9.59215 4.27396C9.35075 4.21182 9.09656 4.16978 8.82596 4.14725C8.72434 4.13879 8.32529 4.13732 8.21545 4.145ZM8.65327 5.67235C9.05526 5.688 9.49899 5.81462 9.86842 6.0191C10.2371 6.22315 10.5574 6.50815 10.8043 6.85168C11.1079 7.27435 11.2875 7.77101 11.3265 8.29616C11.3332 8.38699 11.3332 8.61403 11.3264 8.7047C11.2716 9.44251 10.9386 10.1197 10.3886 10.612C9.92028 11.0313 9.33505 11.2794 8.70435 11.3262C8.6135 11.333 8.38641 11.333 8.29572 11.3262C7.45176 11.2634 6.68939 10.8361 6.19581 10.1492C5.90436 9.74356 5.72831 9.27285 5.67827 8.7655C5.66477 8.62866 5.66477 8.3722 5.67827 8.23537C5.733 7.68038 5.94064 7.16512 6.28192 6.73741C6.41424 6.57158 6.58155 6.40512 6.74768 6.27405C7.21569 5.90477 7.79323 5.69212 8.38814 5.67005C8.48074 5.66662 8.51349 5.6669 8.65327 5.67235Z" fill="black"/>
</svg>
