<svg width="17" height="17" fill="none" xmlns="http://www.w3.org/2000/svg"><path fill-rule="evenodd" clip-rule="evenodd" d="M8.38 3.584C3.933 5.554.257 7.194.212 7.23A.62.62 0 000 7.64c0 .161.081.35.187.436.053.042.97.45 2.04.907 1.069.456 1.96.85 1.98.873.02.024.369 1.28.776 2.79.407 1.512.764 2.806.792 2.877.029.07.098.16.154.2.116.08.352.095.46.028.04-.024.551-.493 1.137-1.042 1.278-1.199 1.236-1.162 1.409-1.207.273-.07.327-.034 1.934 1.305 2.82 2.35 2.615 2.19 2.794 2.19.184 0 .315-.094.403-.29C14.154 16.513 17.025.588 17 .435 16.962.2 16.747-.003 16.542 0c-.041 0-3.714 1.613-8.162 3.584zm4.94-.029a.19.19 0 01.04.108c0 .034-1.223 1.366-2.717 2.959-3.633 3.875-3.776 4.032-3.873 4.222-.128.25-.177.504-.292 1.498-.06.522-.125.953-.152 1.002-.048.089-.186.115-.273.052-.024-.018-.24-.812-.479-1.764-.461-1.84-.487-2-.377-2.293a.956.956 0 01.162-.26c.133-.144 7.797-5.569 7.869-5.57.028 0 .07.02.091.046z" fill="#000"/></svg>