<svg width="17" height="17" viewBox="0 0 17 17" fill="none" xmlns="http://www.w3.org/2000/svg">
<path fill-rule="evenodd" clip-rule="evenodd" d="M8.3804 3.5841C3.9331 5.55467 0.257317 7.19484 0.211989 7.22892C0.102156 7.31156 0.000133295 7.50983 3.65888e-07 7.64093C-0.000199027 7.80211 0.0811202 7.99159 0.187197 8.07714C0.239538 8.11934 1.15718 8.52735 2.22643 8.98382C3.29567 9.44033 4.18673 9.83331 4.20657 9.85716C4.22637 9.881 4.57578 11.1368 4.983 12.6478C5.39023 14.1588 5.74668 15.4529 5.77509 15.5236C5.80354 15.5943 5.87286 15.6843 5.92916 15.7238C6.04451 15.8045 6.28066 15.8189 6.38986 15.7518C6.42917 15.7277 6.94038 15.2588 7.52587 14.7099C8.80441 13.5112 8.76157 13.5479 8.93471 13.5033C9.20821 13.4327 9.26155 13.4687 10.869 14.8082C13.6897 17.1587 13.4842 16.9977 13.6626 16.9977C13.8473 16.9977 13.9778 16.9041 14.0661 16.7084C14.1542 16.5133 17.025 0.588607 16.9998 0.434607C16.9615 0.200133 16.7474 -0.00324231 16.5423 3.9168e-05C16.5006 0.000687833 12.8277 1.6135 8.3804 3.5841ZM13.3193 3.55503C13.3413 3.58021 13.3592 3.62875 13.3592 3.6629C13.3592 3.69705 12.1371 5.02864 10.6434 6.62196C7.0104 10.4974 6.86657 10.6542 6.7698 10.8438C6.64172 11.0947 6.59257 11.3476 6.47845 12.3425C6.41864 12.8639 6.35313 13.2953 6.32632 13.3441C6.2776 13.433 6.13978 13.4592 6.05318 13.3962C6.02852 13.3783 5.81301 12.5844 5.57427 11.6321C5.11304 9.79237 5.08656 9.6313 5.19712 9.33853C5.22666 9.26027 5.29937 9.14366 5.35869 9.07944C5.49179 8.93529 13.1564 3.51042 13.2279 3.50974C13.2563 3.50947 13.2974 3.52985 13.3193 3.55503Z" fill="black"/>
</svg>
