<svg width="17" height="17" fill="none" xmlns="http://www.w3.org/2000/svg"><path fill-rule="evenodd" clip-rule="evenodd" d="M2.519.057A3.221 3.221 0 00.113 2.261L0 2.624v11.762l.113.363a3.268 3.268 0 002.066 2.12l.388.131h11.866l.387-.131a3.268 3.268 0 002.067-2.12l.113-.363V2.624l-.113-.363A3.268 3.268 0 0014.82.142l-.387-.131L8.621.002C3.94-.005 2.753.006 2.52.057zm11.994 1.63c.348.164.646.461.809.81l.128.273v11.47l-.128.273c-.163.349-.46.646-.81.809l-.273.128H2.76l-.273-.128a1.716 1.716 0 01-.809-.809l-.128-.273V2.77l.128-.274a1.662 1.662 0 011.094-.908c.103-.025 2.63-.04 5.825-.036l5.642.008.274.128zm-7.41 3.986c-.377.118-.514.328-.248.381.194.039.366.218.43.449.066.238.066 1.376 0 1.663-.09.389-.26.48-.492.265-.327-.302-.926-1.274-1.252-2.027-.234-.544-.27-.561-1.182-.558-.93.004-1.098.032-1.156.196-.037.104.01.235.28.798.963 2 1.979 3.46 2.827 4.058.7.494 1.382.705 2.284.705.692 0 .75-.04.794-.55.048-.574.181-.805.463-.805.158 0 .224.052.738.581.764.787.762.787 1.924.777.94-.007 1.1-.04 1.232-.25.128-.203-.137-.597-.992-1.476-.365-.375-.677-.738-.694-.805-.044-.175.076-.382.72-1.245.7-.938.967-1.394.972-1.663.006-.313-.058-.33-1.262-.313-1.163.015-1.15.011-1.303.415-.248.662-.94 1.806-1.261 2.088-.122.107-.215.15-.304.14-.215-.026-.247-.219-.24-1.453.006-1.264-.002-1.296-.367-1.388-.307-.077-1.646-.065-1.91.017z" fill="#000"/></svg>