<svg width="17" height="17" viewBox="0 0 17 17" fill="none" xmlns="http://www.w3.org/2000/svg">
<path fill-rule="evenodd" clip-rule="evenodd" d="M2.51852 0.057484C2.07942 0.154724 1.76151 0.289961 1.38644 0.539136C0.788781 0.936229 0.331815 1.55404 0.11251 2.26149L0 2.6245V8.50539V14.3863L0.11251 14.7493C0.420011 15.7413 1.19286 16.5336 2.17949 16.8685L2.56695 17H8.5H14.433L14.8205 16.8685C15.8071 16.5336 16.58 15.7413 16.8875 14.7493L17 14.3863V8.50539V2.6245L16.8875 2.26149C16.58 1.26948 15.8071 0.477133 14.8205 0.142285L14.433 0.0107759L8.62108 0.00196675C3.93882 -0.0051484 2.75264 0.00564511 2.51852 0.057484ZM14.5129 1.68782C14.8612 1.85103 15.1586 2.14822 15.3219 2.49633L15.4501 2.76971V8.50539V14.2411L15.3219 14.5144C15.1586 14.8626 14.8612 15.1597 14.5129 15.323L14.2393 15.4511H8.5H2.76068L2.48713 15.323C2.1388 15.1597 1.84142 14.8626 1.67811 14.5144L1.54986 14.2411V8.50539V2.76971L1.67811 2.49633C1.89097 2.04266 2.30473 1.6989 2.77202 1.58763C2.87528 1.56304 5.40256 1.54755 8.59687 1.55191L14.2393 1.55965L14.5129 1.68782ZM7.10363 5.67312C6.72643 5.79079 6.58893 6.00095 6.85454 6.05405C7.04909 6.09297 7.22083 6.27191 7.28491 6.5026C7.35107 6.74078 7.35126 7.87921 7.2852 8.16585C7.19546 8.55505 7.02521 8.64672 6.79254 8.43109C6.4661 8.12862 5.86655 7.15714 5.54142 6.404C5.30657 5.85991 5.27068 5.84297 4.35897 5.84621C3.42993 5.84955 3.26061 5.87821 3.20302 6.04185C3.16636 6.14602 3.21242 6.27723 3.48311 6.83982C4.44591 8.84091 5.46199 10.2997 6.30986 10.8983C7.00971 11.3924 7.69238 11.6031 8.59352 11.6031C9.28568 11.6031 9.34467 11.5623 9.38773 11.0532C9.43631 10.4788 9.56916 10.2479 9.85089 10.2479C10.0089 10.2479 10.0746 10.2996 10.5889 10.8291C11.3534 11.6163 11.3513 11.6155 12.5131 11.6064C13.453 11.599 13.6127 11.5666 13.7449 11.3565C13.8726 11.1534 13.6081 10.7595 12.753 9.87992C12.3881 9.50451 12.0756 9.14222 12.0587 9.07479C12.0149 8.90021 12.1348 8.69295 12.779 7.82989C13.4792 6.8919 13.746 6.43561 13.7512 6.16746C13.7572 5.85376 13.6931 5.83784 12.4886 5.85386C11.3262 5.8693 11.3382 5.86548 11.1865 6.26915C10.938 6.93081 10.2468 8.07466 9.9248 8.35718C9.80324 8.46386 9.71034 8.50636 9.62122 8.49605C9.40589 8.47112 9.37393 8.27824 9.38046 7.04373C9.38715 5.77971 9.37872 5.74786 9.0145 5.65618C8.70744 5.57893 7.36764 5.59079 7.10363 5.67312Z" fill="black"/>
</svg>
