<svg width="17" height="17" fill="none" xmlns="http://www.w3.org/2000/svg"><path fill-rule="evenodd" clip-rule="evenodd" d="M7.523.05C3.593.534.504 3.667.098 7.583c-.06.58-.024 1.68.074 2.234.155.879.412 1.651.81 2.441l.201.397-.597 2.169A95.171 95.171 0 000 17c.007.005 1.007-.253 2.224-.572 1.772-.466 2.23-.575 2.302-.548.049.02.282.121.517.227a8.638 8.638 0 002.413.687c.588.08 1.619.079 2.19 0a8.497 8.497 0 004.872-2.397 7.962 7.962 0 001.587-2.168 8.79 8.79 0 00.827-2.497c.09-.519.09-2.045 0-2.589a8.264 8.264 0 00-.795-2.465A8.476 8.476 0 0010.315.174C9.522.003 8.34-.05 7.523.051zm2.23 1.469a6.987 6.987 0 012.712 1.085 7.027 7.027 0 012.905 4.073c.307 1.205.283 2.574-.065 3.733a7.066 7.066 0 01-3.657 4.303 6.731 6.731 0 01-3.108.712c-1.312 0-2.474-.317-3.661-.997l-.2-.114-1.313.343c-.722.189-1.319.337-1.326.33-.006-.006.142-.568.33-1.248.188-.68.343-1.26.344-1.291.002-.03-.09-.207-.205-.393C.826 9.333 1.267 5.743 3.564 3.473a7.13 7.13 0 014.209-2.02c.438-.054 1.53-.017 1.98.066zM5.21 4.613c-.206.102-.583.544-.741.87-.31.64-.303 1.446.017 2.193.394.918 1.424 2.221 2.442 3.088a6.984 6.984 0 002.184 1.305c.894.348 1.066.389 1.66.388.466 0 .54-.009.757-.09a2.4 2.4 0 00.889-.562c.206-.2.247-.264.315-.478.084-.267.132-.697.094-.846-.02-.078-.12-.141-.627-.393-.93-.463-1.303-.622-1.463-.622-.13 0-.152.016-.31.222-.36.47-.69.835-.777.856-.103.026-.306-.048-.774-.282a5.483 5.483 0 01-1.908-1.56c-.29-.37-.55-.789-.55-.887 0-.042.134-.25.298-.462.321-.417.416-.573.416-.687 0-.04-.07-.237-.155-.436-.085-.2-.257-.61-.382-.913-.155-.375-.263-.587-.341-.665l-.114-.115h-.39c-.324 0-.412.012-.542.076z" fill="#000"/></svg>